<?xml version="1.0" encoding="utf-8"?>
<!-- Generator: Adobe Illustrator 15.0.0, SVG Export Plug-In . SVG Version: 6.00 Build 0)  -->
<!DOCTYPE svg PUBLIC "-//W3C//DTD SVG 1.1//EN" "http://www.w3.org/Graphics/SVG/1.1/DTD/svg11.dtd">
<svg version="1.1" id="Layer_1" xmlns="http://www.w3.org/2000/svg" xmlns:xlink="http://www.w3.org/1999/xlink" x="0px" y="0px"
	 width="50px" height="50px" viewBox="0 0 50 50" enable-background="new 0 0 50 50" xml:space="preserve">
<g>
	<path fill="#1384C7" d="M25,50c13.809,0,25-11.193,25-25C50,11.193,38.809,0,25,0C11.192,0,0,11.193,0,25C0,38.807,11.192,50,25,50
		"/>
	<path fill="#FFFFFF" d="M18.004,35.455H13.13V19.861h4.874V35.455z M15.443,17.91h-0.037c-1.764,0-2.906-1.192-2.906-2.702
		c0-1.541,1.178-2.708,2.977-2.708c1.798,0,2.903,1.165,2.938,2.704C18.414,16.714,17.274,17.91,15.443,17.91z M37.5,35.455h-5.526
		v-8.069c0-2.112-0.862-3.553-2.765-3.553c-1.453,0-2.262,0.972-2.639,1.91c-0.141,0.335-0.117,0.804-0.117,1.275v8.438h-5.475
		c0,0,0.071-14.294,0-15.594h5.475v2.448c0.322-1.07,2.07-2.598,4.863-2.598c3.462,0,6.184,2.244,6.184,7.073V35.455z"/>
</g>
</svg>
