<?xml version="1.0" encoding="utf-8"?>
<!-- Generator: Adobe Illustrator 15.0.0, SVG Export Plug-In . SVG Version: 6.00 Build 0)  -->
<!DOCTYPE svg PUBLIC "-//W3C//DTD SVG 1.1//EN" "http://www.w3.org/Graphics/SVG/1.1/DTD/svg11.dtd">
<svg version="1.1" id="Layer_1" xmlns="http://www.w3.org/2000/svg" xmlns:xlink="http://www.w3.org/1999/xlink" x="0px" y="0px"
	 width="50px" height="50px" viewBox="0 0 50 50" enable-background="new 0 0 50 50" xml:space="preserve">
<g>
	<path fill="#78CBEF" d="M25.001,50C38.808,50,50,38.809,50,25C50,11.193,38.808,0,25.001,0C11.193,0,0,11.193,0,25
		C0,38.809,11.193,50,25.001,50"/>
	<path fill="#FFFFFF" d="M37.544,18.451c-0.922,0.409-1.912,0.685-2.952,0.809c1.062-0.636,1.878-1.642,2.259-2.841
		c-0.992,0.588-2.091,1.016-3.264,1.245c-0.934-0.999-2.271-1.622-3.749-1.622c-2.837,0-5.136,2.301-5.136,5.137
		c0,0.404,0.043,0.794,0.131,1.17c-4.268-0.214-8.054-2.258-10.59-5.369c-0.442,0.762-0.695,1.644-0.695,2.585
		c0,1.781,0.908,3.354,2.285,4.276c-0.841-0.026-1.633-0.259-2.328-0.642v0.063c0,2.49,1.771,4.567,4.123,5.038
		c-0.431,0.121-0.885,0.182-1.354,0.182c-0.332,0-0.653-0.031-0.967-0.092c0.654,2.041,2.55,3.527,4.799,3.566
		c-1.758,1.379-3.975,2.199-6.38,2.199c-0.415,0-0.824-0.022-1.226-0.07c2.273,1.456,4.975,2.307,7.874,2.307
		c9.452,0,14.618-7.826,14.618-14.617c0-0.223-0.004-0.446-0.014-0.665C35.984,20.386,36.856,19.481,37.544,18.451"/>
</g>
</svg>
