<?xml version="1.0" encoding="utf-8"?>
<!-- Generator: Adobe Illustrator 15.0.0, SVG Export Plug-In . SVG Version: 6.00 Build 0)  -->
<!DOCTYPE svg PUBLIC "-//W3C//DTD SVG 1.1//EN" "http://www.w3.org/Graphics/SVG/1.1/DTD/svg11.dtd">
<svg version="1.1" id="Layer_1" xmlns="http://www.w3.org/2000/svg" xmlns:xlink="http://www.w3.org/1999/xlink" x="0px" y="0px"
	 width="600px" height="225px" viewBox="0 0 600 225" enable-background="new 0 0 600 225" xml:space="preserve">
<g>
	<g id="Layer_2_1_">
		<path fill="#FF9933" d="M342.852,66.656l-0.467-0.001h-19.662c-4.183,0.281-1.709-4.289-1.709-4.289l11.726-24.468l-20.036,4.287
			c0,0-15.632,34.812-17.345,38.596c-1.708,3.783,2.442,3.904,2.442,3.904h15.15c3.817,0,2.199,2.906,2.199,2.906l-19.792,43.879
			l49.557-60.872C348.314,66.338,343.339,66.669,342.852,66.656"/>
		<path fill="#FF9933" d="M342.753,66.737"/>
	</g>
	<g>
		<g>
			<path fill="#525252" d="M327.448,173.743h-26.396c-6.907,0-12.186-3.921-15.582-6.91c-0.269-0.212-0.641-0.538-0.834-0.763
				c-5.661-6.444-5.611-12.774-5.576-16.557c0.039-4.798-1.529-9.223-2.677-12.453c-0.229-0.647-0.442-1.256-0.626-1.803
				c-1.092-3.295-8.223-16.189-12.051-22.123c-12.226-18.938-11.352-35.527-10.88-44.441c0.889-16.888,7.532-30.812,20.314-42.563
				c5.193-4.779,11.529-8.57,18.829-11.26c6.529-2.66,13.557-4.126,20.756-4.323c0.164-0.022,0.339-0.035,0.513-0.035
				c0.021,0,0.233,0,0.254,0l0.71,0.004l0.152-0.004c0.064,0,0.203,0,0.265,0.004L315,10.515c0.023,0,0.253,0,0.283,0
				c0.147,0.004,0.293,0.013,0.438,0.031c8.174,0.182,16.078,1.998,23.506,5.395c6.104,2.547,11.575,5.999,16.141,10.191
				c12.846,11.814,19.489,25.743,20.312,42.581l0.045,0.988c0.08,1.443,0.158,2.883,0.158,4.345l-0.005,0.367
				c-0.021,10.116-1.286,23.556-11.078,38.723c-3.827,5.929-10.954,18.824-12.057,22.118c-0.179,0.551-0.397,1.162-0.626,1.819
				c-1.146,3.223-2.711,7.647-2.672,12.312c0.035,3.953,0.09,10.286-5.597,16.705c-0.198,0.224-0.557,0.54-0.819,0.739
				C339.645,169.83,334.391,173.743,327.448,173.743z M290.962,159.639c0.055,0.051,0.119,0.101,0.179,0.152
				c3.754,3.322,6.803,4.797,9.911,4.797h26.396c3.134,0,6.183-1.475,9.892-4.779c0.069-0.062,0.142-0.119,0.219-0.179
				c3.08-3.644,3.05-6.87,3.021-9.991c-0.05-6.498,1.905-12.041,3.207-15.707c0.214-0.598,0.407-1.145,0.575-1.648
				c1.551-4.666,9.619-18.881,13.061-24.217c8.428-13.052,9.573-24.29,9.589-33.562l0.005-0.356c0-1.376-0.062-2.646-0.14-3.907
				l-0.049-1.046c-0.7-14.281-6.376-26.122-17.36-36.22c-3.804-3.495-8.411-6.392-13.692-8.605
				c-6.604-3.013-13.502-4.569-20.634-4.676c-0.118,0-0.233-0.009-0.349-0.018h-0.213c-0.091,0-0.255-0.004-0.339-0.004h-0.451
				c-0.135,0.013-0.271,0.021-0.412,0.025c-6.313,0.117-12.476,1.382-18.298,3.747c-6.341,2.347-11.704,5.533-16.044,9.53
				c-10.924,10.044-16.6,21.894-17.359,36.22c-0.571,10.867-0.367,23.727,9.404,38.867c3.441,5.335,11.511,19.556,13.06,24.216
				c0.169,0.504,0.363,1.049,0.566,1.638c1.306,3.671,3.268,9.218,3.213,15.558C287.893,152.721,287.863,155.955,290.962,159.639z"
				/>
		</g>
		<g>
			<path fill="#525252" d="M295.445,196.422c-1.971,0-3.694-1.48-4.002-3.552c-0.343-2.289,1.177-4.431,3.392-4.776l37.601-5.967
				c2.214-0.355,4.285,1.219,4.621,3.504c0.345,2.286-1.177,4.422-3.391,4.775l-37.6,5.965
				C295.857,196.404,295.649,196.422,295.445,196.422z"/>
		</g>
		<g>
			<path fill="#525252" d="M295.445,208.059c-1.971,0-3.694-1.476-4.002-3.554c-0.343-2.284,1.177-4.426,3.392-4.774l37.601-5.963
				c2.214-0.356,4.285,1.211,4.621,3.506c0.345,2.285-1.177,4.427-3.391,4.773l-37.6,5.962
				C295.857,208.042,295.649,208.059,295.445,208.059z"/>
		</g>
		<path fill="#525252" d="M294.983,176.514c-0.044,0.006-0.084,0.027-0.129,0.036c-2.145,0.415-3.6,2.501-3.262,4.743
			c0.308,2.068,2.03,3.553,4.002,3.553c0.094,0,0.198-0.018,0.293-0.027l15.701-2.486l3.078-0.491
			c2.215-0.352,3.734-2.485,3.396-4.774c-0.046-0.299-0.125-0.582-0.226-0.854h-20.949L294.983,176.514z"/>
		<g>
			<path fill="#525252" d="M314.25,225c-6.648,0-12.583-4.367-14.758-10.867c-0.805-2.392,0.428-4.998,2.74-5.824
				c2.311-0.815,4.838,0.439,5.637,2.83c0.942,2.815,3.506,4.707,6.381,4.707c2.87,0,5.438-1.892,6.376-4.707
				c0.8-2.387,3.317-3.649,5.642-2.83c2.313,0.826,3.541,3.435,2.735,5.824C326.833,220.633,320.904,225,314.25,225z"/>
		</g>
	</g>
</g>
<text transform="matrix(0.9943 0 0 1 0 162.2002)" fill="#FF9933" font-family="'Bebas'" font-size="171.6417">Jer</text>
<text transform="matrix(0.9943 0 0 1 392.2461 169.5918)" fill="#FF9933" font-family="'Bebas'" font-size="171.6417">me</text>
</svg>
