<?xml version="1.0" encoding="utf-8"?>
<!-- Generator: Adobe Illustrator 15.0.0, SVG Export Plug-In . SVG Version: 6.00 Build 0)  -->
<!DOCTYPE svg PUBLIC "-//W3C//DTD SVG 1.1//EN" "http://www.w3.org/Graphics/SVG/1.1/DTD/svg11.dtd">
<svg version="1.1" id="Layer_1" xmlns="http://www.w3.org/2000/svg" xmlns:xlink="http://www.w3.org/1999/xlink" x="0px" y="0px"
	 width="50px" height="50px" viewBox="0 0 50 50" enable-background="new 0 0 50 50" xml:space="preserve">
<path fill="#F29100" d="M25,50c13.811,0,25-11.193,25-25.001c0-13.807-11.189-25-25-25c-13.809,0-25,11.193-25,25
	C0,38.807,11.191,50,25,50"/>
<path fill="#FFFFFF" d="M40,37.023H10V14.396h30V37.023L40,37.023z M13.551,34.93h22.9l-7.537-7.714l-1.426,1.437
	c-0.617,0.617-1.503,0.971-2.432,0.971c-0.005,0-0.012-0.001-0.016-0.001c-0.934-0.004-1.821-0.364-2.437-0.99l-1.45-1.469
	L13.551,34.93L13.551,34.93z M12.094,17.988v15.438l7.592-7.753L12.094,17.988L12.094,17.988z M30.391,25.73l7.518,7.695V18.162
	L30.391,25.73L30.391,25.73z M13.557,16.49l10.542,10.672c0.229,0.232,0.575,0.365,0.95,0.367c0.005,0,0.006,0,0.009,0
	c0.371,0,0.726-0.133,0.946-0.355L36.619,16.49H13.557L13.557,16.49z"/>
</svg>
