<?xml version="1.0" encoding="utf-8"?>
<!-- Generator: Adobe Illustrator 15.0.0, SVG Export Plug-In . SVG Version: 6.00 Build 0)  -->
<!DOCTYPE svg PUBLIC "-//W3C//DTD SVG 1.1//EN" "http://www.w3.org/Graphics/SVG/1.1/DTD/svg11.dtd">
<svg version="1.1" id="Layer_1" xmlns="http://www.w3.org/2000/svg" xmlns:xlink="http://www.w3.org/1999/xlink" x="0px" y="0px"
	 width="150px" height="150px" viewBox="0 0 150 150" enable-background="new 0 0 150 150" xml:space="preserve">
<g>
	<path fill="#6FCCE2" d="M75.128,150.065c41.428,0,75-33.582,75-75c0-41.42-33.572-75-75-75c-41.426,0-75,33.58-75,75
		C0.128,116.483,33.703,150.065,75.128,150.065"/>
	<g>
		<path fill="#FFFFFF" d="M44.205,45.695v36.099h-4.897c-0.926,0-1.679-0.823-1.679-1.853V33.36c0-1.576,1.065-2.861,2.529-2.861
			H61.8c1.458,0,2.529,1.279,2.529,2.855v2.736h33.463c0.93,0,1.678,0.828,1.678,1.846v10.476H70.906v-2.742
			c0-1.572-1.065-2.854-2.534-2.854H46.739C45.27,42.814,44.205,44.114,44.205,45.695z"/>
		<path fill="#FFFFFF" d="M110.95,59.799H77.488v-2.735c0-1.576-1.072-2.855-2.536-2.855H53.314c-1.463,0-2.528,1.285-2.528,2.86
			v46.586c0,1.023,0.748,1.846,1.679,1.846h4.895h53.589c0.931,0,1.68-0.822,1.68-1.846V61.645
			C112.629,60.627,111.881,59.799,110.95,59.799z"/>
	</g>
	<text transform="matrix(1 0 0 1 40.626 126.6465)" fill="#FFFFFF" font-family="'HelveticaNeue-Light'" font-size="14">PROJECTS</text>
</g>
</svg>
