<?xml version="1.0" encoding="utf-8"?>
<!-- Generator: Adobe Illustrator 15.0.0, SVG Export Plug-In . SVG Version: 6.00 Build 0)  -->
<!DOCTYPE svg PUBLIC "-//W3C//DTD SVG 1.1//EN" "http://www.w3.org/Graphics/SVG/1.1/DTD/svg11.dtd">
<svg version="1.1" id="Layer_1" xmlns="http://www.w3.org/2000/svg" xmlns:xlink="http://www.w3.org/1999/xlink" x="0px" y="0px"
	 width="150px" height="150px" viewBox="0 0 150 150" enable-background="new 0 0 150 150" xml:space="preserve">
<g>
	<path fill="#1384C7" d="M75.128,150c41.428,0,75-33.582,75-75c0-41.42-33.572-75-75-75c-41.426,0-75,33.58-75,75
		C0.128,116.418,33.703,150,75.128,150"/>
	<g>
		<path fill="#FFFFFF" d="M37.628,69.046v30.693c18.559-0.094,25.713,3.373,25.713,3.373c15.895,0.693,31.565,0,31.565,0
			c12.914-4.16,11.991-9.01,11.991-9.01c2.97-9.364,0.008-0.05,2.538-8.01c2.434-3.254,5.639-11.063,0.258-17.422
			c1.378-5.083-3.359-10.298-4.929-11.324c-6.716-1.734-10.299-2.025-14.981-1.673c-6.207,2.119-10.43,1.329-11.809,1.671
			c11.71-21.231,0.939-4.787,9.008-16.537c0.5-11.235-10.68-15.642-14.201-9.811c0,10.4-1.378,10.4-9.44,18.025
			c-13.598,8.323-10.277,8.154-12.112,13.004C44.775,66.192,37.628,69.046,37.628,69.046z"/>
	</g>
	<text transform="matrix(1 0 0 1 55.1348 127.0605)" fill="#FFFFFF" font-family="'HelveticaNeue-Light'" font-size="14">RECS</text>
</g>
</svg>
