<?xml version="1.0" encoding="utf-8"?>
<!-- Generator: Adobe Illustrator 15.0.0, SVG Export Plug-In . SVG Version: 6.00 Build 0)  -->
<!DOCTYPE svg PUBLIC "-//W3C//DTD SVG 1.1//EN" "http://www.w3.org/Graphics/SVG/1.1/DTD/svg11.dtd">
<svg version="1.1" id="Layer_1" xmlns="http://www.w3.org/2000/svg" xmlns:xlink="http://www.w3.org/1999/xlink" x="0px" y="0px"
	 width="150px" height="150px" viewBox="0 0 150 150" enable-background="new 0 0 150 150" xml:space="preserve">
<g>
	<path fill="#E9644A" d="M150,141c0,4.971-4.029,9-9,9H9c-4.97,0-9-4.029-9-9V9c0-4.97,4.03-9,9-9h132c4.971,0,9,4.03,9,9V141z"/>
	<g id="Your_Icon_2_">
		<rect x="24.969" y="57.113" fill="#FFFFFF" width="46.462" height="5.595"/>
		<rect x="24.969" y="69.573" fill="#FFFFFF" width="46.462" height="5.594"/>
		<rect x="24.969" y="82.029" fill="#FFFFFF" width="46.462" height="5.594"/>
		<rect x="24.969" y="94.486" fill="#FFFFFF" width="46.462" height="5.596"/>
		<rect x="24.969" y="106.945" fill="#FFFFFF" width="46.462" height="5.598"/>
		<path fill="#FFFFFF" d="M30.706,19.764c-4.98,4.983-4.991,13.057,0,18.04c4.475,4.472,11.442,4.889,16.423,1.314l11.8,11.804
			l2.936-2.934L50.066,36.179c3.579-4.982,3.158-11.937-1.327-16.417C43.769,14.782,35.689,14.782,30.706,19.764z M47.911,34.042
			c-0.363,0.582-0.788,1.13-1.297,1.641c-0.504,0.496-1.058,0.928-1.625,1.296c-3.775,2.431-8.856,1.984-12.159-1.296
			c-3.808-3.816-3.808-9.983,0-13.791c3.809-3.811,9.986-3.811,13.783,0C49.918,25.2,50.344,30.277,47.911,34.042z"/>
		<path fill="#FFFFFF" d="M87.779,47.981l18.644-18.649l18.657,18.651c0.293,0.294,0.617,0.536,0.959,0.739V35.166L109.877,19
			c-1.905-1.9-4.982-1.9-6.891,0L87.334,34.652v13.717C87.49,48.251,87.639,48.123,87.779,47.981z"/>
		<path fill="#FFFFFF" d="M109.879,42.539c-0.232-0.23-0.483-0.431-0.75-0.611c-0.11-0.067-0.221-0.121-0.337-0.18
			c-0.173-0.091-0.319-0.192-0.497-0.265c-0.145-0.059-0.285-0.091-0.442-0.136c-0.155-0.046-0.311-0.104-0.471-0.14
			c-0.255-0.051-0.506-0.066-0.755-0.08c-0.072,0-0.135-0.016-0.194-0.016c-0.079,0-0.151,0.016-0.223,0.023
			c-0.247,0.012-0.488,0.021-0.731,0.076c-0.18,0.034-0.33,0.09-0.498,0.148c-0.144,0.043-0.283,0.073-0.42,0.125
			c-0.176,0.077-0.355,0.181-0.535,0.281c-0.086,0.061-0.197,0.1-0.297,0.165c-0.267,0.181-0.518,0.381-0.753,0.62l-15.644,15.64
			v13.724c0.154-0.121,0.302-0.248,0.441-0.389l13.785-13.782v27.393c0,10.418-8.178,18.965-18.458,19.549v9.744
			c15.651-0.596,28.196-13.5,28.196-29.293V57.742l13.783,13.779c0.293,0.298,0.617,0.539,0.962,0.742V58.7L109.879,42.539z"/>
	</g>
	<text transform="matrix(1 0 0 1 57.1665 137.1289)" fill="#FFFFFF" font-family="'HelveticaNeue-Light'" font-size="18">SEO</text>
</g>
</svg>
