<?xml version="1.0" encoding="utf-8"?>
<!-- Generator: Adobe Illustrator 15.0.0, SVG Export Plug-In . SVG Version: 6.00 Build 0)  -->
<!DOCTYPE svg PUBLIC "-//W3C//DTD SVG 1.1//EN" "http://www.w3.org/Graphics/SVG/1.1/DTD/svg11.dtd">
<svg version="1.1" id="Layer_1" xmlns="http://www.w3.org/2000/svg" xmlns:xlink="http://www.w3.org/1999/xlink" x="0px" y="0px"
	 width="150px" height="150px" viewBox="0 0 150 150" enable-background="new 0 0 150 150" xml:space="preserve">
<g>
	<path fill="#7AC943" d="M75.128,150c41.428,0,75-33.582,75-75c0-41.42-33.572-75-75-75c-41.426,0-75,33.58-75,75
		C0.128,116.418,33.703,150,75.128,150"/>
	<g id="Your_Icon">
		<g>
			<path fill="#FFFFFF" d="M63.642,73.648L39.645,96.503c-1.721,1.721,0.215,3.915,1.905,5.191l2.864,2.167
				c1.696,1.279,4.443,3.294,6.163,1.559l20.715-22.387L63.642,73.648z"/>
			<path fill="#FFFFFF" d="M105.805,49.549c-0.215-0.685-0.637-1.298-1.275-1.78l-7.709-5.821c-0.91-0.69-2.094-0.97-3.24-0.862
				c-2.352-1.064-3.471-2.217-3.965-3.186c0.686-1.292,0.742-2.479,0.002-3.035l-4.57-3.456c-1.096-0.833-3.51,0.042-5.391,1.941
				l-3.854,3.857c-1.889,1.9-2.531,4.105-1.434,4.928l4.575,3.45c0.713,0.541,1.988,0.352,3.312-0.364
				c3.496,0.938,3.439,3.021,3.439,3.021l0,0c-0.098,0.51-0.082,1.025,0.045,1.507c-0.547,2.54,0.113,5.033,0.113,5.033
				s-1.018,1.016-4.051,4.069c-1.502,1.501-2.494,2.009-3.123,2.129c-0.18-0.006-0.354,0.006-0.533,0.022
				c-0.189-0.035-0.309-0.105-0.357-0.15l0.182,0.162c-1.123,0.136-2.268,0.661-3.136,1.536l-0.471,0.45l1.474,1.831l5.943,6.746
				l2.059-2.224c0.959-0.962,1.383-2.137,1.297-3.208c0.264-0.814,0.479-1.536,0.479-1.536l5.137-5.03
				c2.482,0.257,4.721-0.335,6.527-1.158c0.568,0.031,1.148-0.042,1.707-0.197c9.723,3.687,8.58,15.421,8.58,15.421
				c2.164-0.149,2.881-2.892,2.881-2.892C116.234,60.768,109.037,52.532,105.805,49.549z"/>
		</g>
		<g>
			<path fill="#FFFFFF" d="M46.073,36.994c-1.367,0.045,0.154,1.403,0.154,1.403l6.103,4.228c2.089,1.166,1.383,2.61,1.383,2.61
				c-0.879,3.503-5.826,4.947-5.826,4.947c-1.377,0.759-2.053-0.143-2.053-0.143l-5.725-4.273c-2.737-1.691-2.474,1.653-2.474,1.653
				c1.513,9.737,10.772,10.053,10.772,10.053c3.316,0.039,5,0.52,5.814,0.884c0.233,0.352,0.504,0.712,0.854,1.095l6.127,7.042
				l17.5,21.467c0.498,0.665,1.016,1.159,1.514,1.54c0.02,0.893-0.145,2.243-0.844,4.276c0,0-2.443,7.792,7.768,11.973
				c0,0,3.588,1.225,2.557-1.56l-2.955-6.036c0,0-0.791-0.835,0.457-1.748c0,0,3.068-3.681,7.168-3.358c0,0,1.801-0.15,2.449,1.939
				l2.793,6.34c0,0,1.035,1.666,1.496,0.552c0.289-0.714,8.465-12.765-8.102-16.479c0,0-3.344-0.499-5.26-3.067L70.98,63.304
				l-7.517-9.346c-2.243-2.366-1.778-5.283-1.778-5.283C62.591,33.795,46.939,36.962,46.073,36.994z"/>
		</g>
	</g>
	<text transform="matrix(1 0 0 1 51.123 127.0215)" fill="#FFFFFF" font-family="'HelveticaNeue-Light'" font-size="14">SKILLS</text>
</g>
</svg>
