<?xml version="1.0" encoding="utf-8"?>
<!-- Generator: Adobe Illustrator 15.0.0, SVG Export Plug-In . SVG Version: 6.00 Build 0)  -->
<!DOCTYPE svg PUBLIC "-//W3C//DTD SVG 1.1//EN" "http://www.w3.org/Graphics/SVG/1.1/DTD/svg11.dtd">
<svg version="1.1" id="Layer_1" xmlns="http://www.w3.org/2000/svg" xmlns:xlink="http://www.w3.org/1999/xlink" x="0px" y="0px"
	 width="150px" height="150px" viewBox="0 0 150 150" enable-background="new 0 0 150 150" xml:space="preserve">
<g>
	<path fill="#FFFFFF" d="M150,141c0,4.971-4.029,9-9,9H9c-4.97,0-9-4.029-9-9V9c0-4.97,4.03-9,9-9h132c4.971,0,9,4.03,9,9V141z"/>
	<g>
		<path fill="#78CBEF" d="M73.825,59.335c11.045,0,20-8.954,20-20c0-11.045-8.954-20-20-20c-11.046,0-20,8.955-20,20
			C53.825,50.382,62.779,59.335,73.825,59.335"/>
		<path fill="#FFFFFF" d="M83.858,34.096c-0.737,0.327-1.529,0.548-2.36,0.647c0.85-0.509,1.501-1.313,1.807-2.273
			c-0.795,0.471-1.673,0.812-2.61,0.996c-0.749-0.799-1.817-1.298-3-1.298c-2.269,0-4.109,1.841-4.109,4.11
			c0,0.323,0.035,0.636,0.105,0.936c-3.416-0.171-6.443-1.806-8.472-4.295c-0.354,0.609-0.557,1.315-0.557,2.068
			c0,1.424,0.726,2.683,1.829,3.421c-0.674-0.021-1.308-0.207-1.863-0.513v0.05c0,1.993,1.417,3.654,3.298,4.03
			c-0.345,0.097-0.708,0.145-1.083,0.145c-0.265,0-0.523-0.024-0.772-0.073c0.522,1.632,2.04,2.821,3.839,2.853
			c-1.407,1.103-3.18,1.76-5.104,1.76c-0.332,0-0.66-0.018-0.981-0.057c1.819,1.165,3.98,1.846,6.3,1.846
			c7.561,0,11.694-6.262,11.694-11.694c0-0.179-0.003-0.357-0.01-0.532C82.611,35.644,83.309,34.92,83.858,34.096"/>
	</g>
	<g>
		<path fill="#E95655" d="M73.825,106.457c11.046,0,20-8.953,20-20c0-11.044-8.953-20-20-20c-11.045,0-20,8.955-20,20
			C53.825,97.504,62.779,106.457,73.825,106.457"/>
		<path fill="#FFFFFF" d="M73.825,76.404c-5.522,0-10,4.478-10,10c0,4.095,2.463,7.613,5.987,9.159
			c-0.029-0.698-0.005-1.536,0.173-2.296c0.192-0.812,1.286-5.449,1.286-5.449s-0.319-0.639-0.319-1.582
			c0-1.482,0.859-2.589,1.929-2.589c0.91,0,1.349,0.683,1.349,1.501c0,0.915-0.583,2.282-0.883,3.549
			c-0.251,1.061,0.531,1.926,1.578,1.926c1.896,0,3.171-2.433,3.171-5.316c0-2.191-1.477-3.832-4.161-3.832
			c-3.033,0-4.923,2.262-4.923,4.789c0,0.871,0.256,1.486,0.658,1.961c0.186,0.22,0.211,0.307,0.145,0.559
			c-0.048,0.182-0.158,0.627-0.204,0.802c-0.066,0.253-0.271,0.345-0.5,0.251c-1.397-0.571-2.048-2.102-2.048-3.82
			c0-2.841,2.395-6.248,7.146-6.248c3.819,0,6.331,2.764,6.331,5.729c0,3.924-2.18,6.854-5.396,6.854
			c-1.079,0-2.095-0.583-2.442-1.246c0,0-0.581,2.304-0.704,2.749c-0.211,0.771-0.627,1.541-1.006,2.142
			c0.899,0.266,1.849,0.41,2.834,0.41c5.522,0,9.999-4.477,9.999-10C83.824,80.882,79.348,76.404,73.825,76.404"/>
	</g>
	<g>
		<path fill="#547BBC" d="M30.44,59.335c11.045,0,20-8.954,20-20c0-11.045-8.955-20-20-20s-20,8.955-20,20
			C10.44,50.382,19.395,59.335,30.44,59.335"/>
		<path fill="#FFFFFF" d="M25.616,35.949h2.067v-2.009c0-0.886,0.022-2.253,0.666-3.099c0.678-0.896,1.609-1.505,3.21-1.505
			c2.608,0,3.707,0.372,3.707,0.372l-0.517,3.063c0,0-0.862-0.249-1.666-0.249c-0.805,0-1.524,0.288-1.524,1.092v2.335h3.297
			l-0.23,2.992h-3.067v10.395h-3.876V38.941h-2.067V35.949z"/>
	</g>
	<g>
		<path fill="#5E8FAE" d="M117.209,106.457c11.046,0,20-8.955,20-20s-8.954-20-20-20c-11.045,0-20,8.955-20,20
			S106.164,106.457,117.209,106.457"/>
		<path fill="#FFFFFF" d="M117.426,76.457v5.056h4.746v3.14h-4.746v5.128c0,1.161,0.062,1.905,0.185,2.232
			c0.122,0.331,0.351,0.593,0.687,0.79c0.441,0.266,0.946,0.396,1.518,0.396c1.012,0,2.018-0.33,3.021-0.988v3.156
			c-0.855,0.401-1.628,0.685-2.321,0.846c-0.693,0.164-1.441,0.244-2.246,0.244c-0.916,0-1.725-0.115-2.426-0.346
			c-0.701-0.232-1.303-0.561-1.797-0.988c-0.496-0.427-0.842-0.883-1.033-1.363s-0.287-1.18-0.287-2.094v-7.014h-2.211v-2.83
			c0.787-0.256,1.459-0.623,2.02-1.098c0.56-0.477,1.011-1.049,1.349-1.719c0.339-0.666,0.573-1.518,0.7-2.549H117.426z"/>
	</g>
	<g>
		<path fill="#696969" d="M30.44,106.457c11.046,0,20-8.955,20-20s-8.954-20-20-20c-11.047,0-20,8.955-20,20
			S19.393,106.457,30.44,106.457"/>
		<path fill="#FFFFFF" d="M36.577,76.457H24.308c-2.131,0-3.865,1.734-3.865,3.865v4.082v8.188c0,2.132,1.734,3.864,3.865,3.864
			h12.269c2.132,0,3.866-1.732,3.866-3.864v-8.188v-4.082C40.443,78.191,38.709,76.457,36.577,76.457z M37.687,78.763l0.442-0.001
			v0.439v2.95l-3.38,0.011l-0.011-3.391L37.687,78.763z M27.589,84.404c0.64-0.887,1.679-1.467,2.854-1.467s2.214,0.58,2.854,1.467
			c0.418,0.579,0.667,1.287,0.667,2.053c0,1.941-1.581,3.52-3.521,3.52c-1.941,0-3.52-1.578-3.52-3.52
			C26.923,85.691,27.172,84.983,27.589,84.404z M38.494,92.593c0,1.058-0.859,1.916-1.917,1.916H24.308
			c-1.058,0-1.917-0.858-1.917-1.916v-8.188h2.986c-0.258,0.635-0.403,1.328-0.403,2.053c0,3.016,2.453,5.47,5.469,5.47
			s5.468-2.454,5.468-5.47c0-0.725-0.146-1.418-0.403-2.053h2.986V92.593z"/>
	</g>
	<g>
		<path fill="#4B4B4B" d="M117.209,59.335c11.047,0,20-8.954,20-20c0-11.045-8.953-20-20-20c-11.045,0-20,8.954-20,20
			C97.209,50.381,106.164,59.335,117.209,59.335"/>
		<path fill="#FFFFFF" d="M113.9,48.293c-2.378,0-4.095-1.504-4.095-3.312c0-1.771,2.13-3.247,4.508-3.221
			c0.555,0.006,1.071,0.095,1.541,0.247c1.29,0.898,2.216,1.404,2.478,2.428c0.049,0.208,0.076,0.42,0.076,0.639
			C118.408,46.881,117.244,48.293,113.9,48.293 M114.525,37.691c-1.596-0.047-3.113-1.785-3.388-3.88
			c-0.275-2.096,0.796-3.7,2.39-3.652c1.596,0.048,3.113,1.729,3.389,3.824C117.19,36.08,116.121,37.74,114.525,37.691
			 M117.834,40.795c-0.561-0.396-1.63-1.359-1.63-1.926c0-0.665,0.189-0.991,1.188-1.772c1.024-0.801,1.75-1.926,1.75-3.234
			c0-1.558-0.695-3.076-1.996-3.578h1.963l1.387-1.001h-6.195c-2.775,0-5.389,2.104-5.389,4.54c0,2.49,1.893,4.5,4.717,4.5
			c0.197,0,0.388-0.004,0.574-0.017c-0.183,0.35-0.314,0.746-0.314,1.156c0,0.692,0.373,1.254,0.844,1.712
			c-0.356,0-0.7,0.01-1.074,0.01c-3.439,0-6.086,2.19-6.086,4.462c0,2.237,2.902,3.637,6.34,3.637c3.922,0,6.088-2.225,6.088-4.462
			C120,43.026,119.471,41.952,117.834,40.795 M126.846,37.874h-2.412v-2.411h-1.939v2.411h-2.412v1.941h2.412v2.412h1.939v-2.412
			h2.412V37.874z"/>
	</g>
	<text transform="matrix(1 0 0 1 16.1665 135.1289)" fill="#4D4D4D" font-family="'HelveticaNeue-Light'" font-size="18">SOCIAL MEDIA</text>
</g>
</svg>
